<mxfile host="Electron" modified="2023-12-15T03:37:19.889Z" agent="Mozilla/5.0 (Windows NT 10.0; Win64; x64) AppleWebKit/537.36 (KHTML, like Gecko) draw.io/22.1.2 Chrome/114.0.5735.289 Electron/25.9.4 Safari/537.36" etag="S68T1fOw5P6qB_fVXt5_" version="22.1.2" type="device">
  <diagram id="C5RBs43oDa-KdzZeNtuy" name="Page-1">
    <mxGraphModel dx="1475" dy="949" grid="1" gridSize="10" guides="1" tooltips="1" connect="1" arrows="1" fold="1" page="1" pageScale="1" pageWidth="827" pageHeight="1169" math="0" shadow="0">
      <root>
        <mxCell id="WIyWlLk6GJQsqaUBKTNV-0" />
        <mxCell id="WIyWlLk6GJQsqaUBKTNV-1" parent="WIyWlLk6GJQsqaUBKTNV-0" />
        <mxCell id="CuIuWNtZuQJhag1xSFM--0" style="edgeStyle=orthogonalEdgeStyle;rounded=0;orthogonalLoop=1;jettySize=auto;html=1;exitX=0.5;exitY=1;exitDx=0;exitDy=0;exitPerimeter=0;entryX=0.5;entryY=0;entryDx=0;entryDy=0;" edge="1" parent="WIyWlLk6GJQsqaUBKTNV-1" source="CuIuWNtZuQJhag1xSFM--1" target="CuIuWNtZuQJhag1xSFM--3">
          <mxGeometry relative="1" as="geometry" />
        </mxCell>
        <mxCell id="CuIuWNtZuQJhag1xSFM--1" value="Start" style="strokeWidth=2;html=1;shape=mxgraph.flowchart.start_1;whiteSpace=wrap;" vertex="1" parent="WIyWlLk6GJQsqaUBKTNV-1">
          <mxGeometry x="110" y="20" width="100" height="60" as="geometry" />
        </mxCell>
        <mxCell id="CuIuWNtZuQJhag1xSFM--2" style="edgeStyle=orthogonalEdgeStyle;rounded=0;orthogonalLoop=1;jettySize=auto;html=1;exitX=0.5;exitY=1;exitDx=0;exitDy=0;entryX=0.5;entryY=0;entryDx=0;entryDy=0;" edge="1" parent="WIyWlLk6GJQsqaUBKTNV-1" source="CuIuWNtZuQJhag1xSFM--3" target="CuIuWNtZuQJhag1xSFM--5">
          <mxGeometry relative="1" as="geometry" />
        </mxCell>
        <mxCell id="CuIuWNtZuQJhag1xSFM--3" value="Input:&lt;br&gt;&lt;div&gt;int timeMinutes,&lt;/div&gt;&lt;div&gt;&amp;nbsp;int timeSeconds;&lt;/div&gt;&lt;div&gt;&lt;span style=&quot;background-color: initial;&quot;&gt;double distance;&lt;/span&gt;&lt;/div&gt;" style="rounded=1;whiteSpace=wrap;html=1;absoluteArcSize=1;arcSize=12;strokeWidth=2;shape=parallelogram;perimeter=parallelogramPerimeter;size=0.23;" vertex="1" parent="WIyWlLk6GJQsqaUBKTNV-1">
          <mxGeometry x="65" y="110" width="190" height="120" as="geometry" />
        </mxCell>
        <mxCell id="CuIuWNtZuQJhag1xSFM--13" style="edgeStyle=orthogonalEdgeStyle;rounded=0;orthogonalLoop=1;jettySize=auto;html=1;exitX=0.5;exitY=1;exitDx=0;exitDy=0;entryX=0.5;entryY=0;entryDx=0;entryDy=0;" edge="1" parent="WIyWlLk6GJQsqaUBKTNV-1" source="CuIuWNtZuQJhag1xSFM--5" target="CuIuWNtZuQJhag1xSFM--12">
          <mxGeometry relative="1" as="geometry" />
        </mxCell>
        <mxCell id="CuIuWNtZuQJhag1xSFM--5" value="&lt;div&gt;double totalSeconds = timeMinutes * 60 + timeSeconds;&lt;/div&gt;&lt;div&gt;double speed = (distance / 1000) / (totalSeconds / 3600);&lt;/div&gt;" style="verticalLabelPosition=middle;verticalAlign=middle;html=1;shape=label;whiteSpace=wrap;rounded=1;size=0.14;arcSize=14;labelPosition=center;align=center;absoluteArcSize=1;strokeWidth=2;" vertex="1" parent="WIyWlLk6GJQsqaUBKTNV-1">
          <mxGeometry x="-5" y="260" width="330" height="60" as="geometry" />
        </mxCell>
        <mxCell id="CuIuWNtZuQJhag1xSFM--9" value="End" style="strokeWidth=2;html=1;shape=mxgraph.flowchart.terminator;whiteSpace=wrap;" vertex="1" parent="WIyWlLk6GJQsqaUBKTNV-1">
          <mxGeometry x="110" y="510" width="100" height="60" as="geometry" />
        </mxCell>
        <mxCell id="CuIuWNtZuQJhag1xSFM--12" value="Output:&lt;br&gt;&lt;div&gt;&lt;div&gt;&amp;nbsp;&quot;Дистанція: &quot; distance &quot; м&quot;;&lt;/div&gt;&lt;div&gt;&amp;nbsp;&quot;Час: &quot; timeMinutes &quot; хв &quot; timeSeconds &quot; сек = &quot; totalSeconds &quot; сек&quot;&amp;nbsp;&lt;/div&gt;&lt;div&gt;&quot;Швидкість: speed км/год&quot;;&lt;/div&gt;&lt;/div&gt;" style="rounded=1;whiteSpace=wrap;html=1;absoluteArcSize=1;arcSize=12;strokeWidth=2;shape=parallelogram;perimeter=parallelogramPerimeter;size=0.23;" vertex="1" parent="WIyWlLk6GJQsqaUBKTNV-1">
          <mxGeometry x="-97.5" y="360" width="515" height="120" as="geometry" />
        </mxCell>
        <mxCell id="CuIuWNtZuQJhag1xSFM--14" style="edgeStyle=orthogonalEdgeStyle;rounded=0;orthogonalLoop=1;jettySize=auto;html=1;exitX=0.5;exitY=1;exitDx=0;exitDy=0;entryX=0.5;entryY=0;entryDx=0;entryDy=0;entryPerimeter=0;" edge="1" parent="WIyWlLk6GJQsqaUBKTNV-1" source="CuIuWNtZuQJhag1xSFM--12" target="CuIuWNtZuQJhag1xSFM--9">
          <mxGeometry relative="1" as="geometry" />
        </mxCell>
      </root>
    </mxGraphModel>
  </diagram>
</mxfile>
